<mxfile host="Electron" agent="Mozilla/5.0 (Windows NT 10.0; Win64; x64) AppleWebKit/537.36 (KHTML, like Gecko) draw.io/24.7.8 Chrome/128.0.6613.36 Electron/32.0.1 Safari/537.36" version="24.7.8">
  <diagram name="Страница — 1" id="QPKFa64h4j5_KewyGpv0">
    <mxGraphModel dx="2049" dy="2363" grid="1" gridSize="10" guides="1" tooltips="1" connect="1" arrows="1" fold="1" page="1" pageScale="1" pageWidth="827" pageHeight="1169" math="0" shadow="0">
      <root>
        <mxCell id="0" />
        <mxCell id="1" parent="0" />
        <mxCell id="8TzrN5soEH7_kOtTqFTn-1" value="Клиент" style="shape=umlActor;verticalLabelPosition=bottom;verticalAlign=top;html=1;" parent="1" vertex="1">
          <mxGeometry x="130" y="40" width="30" height="60" as="geometry" />
        </mxCell>
        <mxCell id="8TzrN5soEH7_kOtTqFTn-2" value="Доставка" style="shape=umlActor;verticalLabelPosition=bottom;verticalAlign=top;html=1;" parent="1" vertex="1">
          <mxGeometry x="130" y="430" width="30" height="60" as="geometry" />
        </mxCell>
        <mxCell id="8TzrN5soEH7_kOtTqFTn-3" value="" style="endArrow=classic;html=1;rounded=0;" parent="1" target="8TzrN5soEH7_kOtTqFTn-4" edge="1">
          <mxGeometry width="50" height="50" relative="1" as="geometry">
            <mxPoint x="170" y="80" as="sourcePoint" />
            <mxPoint x="280" y="80" as="targetPoint" />
          </mxGeometry>
        </mxCell>
        <mxCell id="8TzrN5soEH7_kOtTqFTn-4" value="Открыть приложение" style="ellipse;whiteSpace=wrap;html=1;" parent="1" vertex="1">
          <mxGeometry x="230" y="-90" width="120" height="80" as="geometry" />
        </mxCell>
        <mxCell id="8TzrN5soEH7_kOtTqFTn-8" value="Выбор нужных продуктов" style="ellipse;whiteSpace=wrap;html=1;" parent="1" vertex="1">
          <mxGeometry x="310" y="20" width="120" height="80" as="geometry" />
        </mxCell>
        <mxCell id="8TzrN5soEH7_kOtTqFTn-10" value="Подтверждение заказа" style="ellipse;whiteSpace=wrap;html=1;" parent="1" vertex="1">
          <mxGeometry x="90" y="240" width="120" height="80" as="geometry" />
        </mxCell>
        <mxCell id="8TzrN5soEH7_kOtTqFTn-11" value="&amp;lt;&amp;lt;extends&amp;gt;&amp;gt;" style="endArrow=open;endSize=12;dashed=1;html=1;rounded=0;exitX=0.5;exitY=1;exitDx=0;exitDy=0;entryX=0.5;entryY=0;entryDx=0;entryDy=0;entryPerimeter=0;" parent="1" source="8TzrN5soEH7_kOtTqFTn-12" target="8TzrN5soEH7_kOtTqFTn-1" edge="1">
          <mxGeometry x="0.0057" width="160" relative="1" as="geometry">
            <mxPoint x="1070" y="70" as="sourcePoint" />
            <mxPoint x="1370" y="-50" as="targetPoint" />
            <mxPoint as="offset" />
          </mxGeometry>
        </mxCell>
        <mxCell id="8TzrN5soEH7_kOtTqFTn-12" value="Отмена заказа" style="ellipse;whiteSpace=wrap;html=1;" parent="1" vertex="1">
          <mxGeometry x="90" y="-160" width="120" height="80" as="geometry" />
        </mxCell>
        <mxCell id="8TzrN5soEH7_kOtTqFTn-14" value="Добавление продуктов в корзину" style="ellipse;whiteSpace=wrap;html=1;" parent="1" vertex="1">
          <mxGeometry x="340" y="130" width="120" height="80" as="geometry" />
        </mxCell>
        <mxCell id="8TzrN5soEH7_kOtTqFTn-16" value="Оплата" style="ellipse;whiteSpace=wrap;html=1;" parent="1" vertex="1">
          <mxGeometry x="340" y="240" width="120" height="80" as="geometry" />
        </mxCell>
        <mxCell id="8TzrN5soEH7_kOtTqFTn-17" value="" style="endArrow=classic;html=1;rounded=0;" parent="1" target="8TzrN5soEH7_kOtTqFTn-18" edge="1">
          <mxGeometry width="50" height="50" relative="1" as="geometry">
            <mxPoint x="170" y="470" as="sourcePoint" />
            <mxPoint x="280" y="470" as="targetPoint" />
          </mxGeometry>
        </mxCell>
        <mxCell id="8TzrN5soEH7_kOtTqFTn-18" value="Обработка заказа" style="ellipse;whiteSpace=wrap;html=1;" parent="1" vertex="1">
          <mxGeometry x="280" y="430" width="120" height="80" as="geometry" />
        </mxCell>
        <mxCell id="8TzrN5soEH7_kOtTqFTn-20" value="&amp;lt;&amp;lt;extends&amp;gt;&amp;gt;" style="endArrow=open;endSize=12;dashed=1;html=1;rounded=0;entryX=1;entryY=0.5;entryDx=0;entryDy=0;exitX=0;exitY=0.5;exitDx=0;exitDy=0;" parent="1" source="8TzrN5soEH7_kOtTqFTn-21" target="8TzrN5soEH7_kOtTqFTn-18" edge="1">
          <mxGeometry width="160" relative="1" as="geometry">
            <mxPoint x="500" y="540" as="sourcePoint" />
            <mxPoint x="570" y="470" as="targetPoint" />
          </mxGeometry>
        </mxCell>
        <mxCell id="8TzrN5soEH7_kOtTqFTn-21" value="Оповещение курьера" style="ellipse;whiteSpace=wrap;html=1;" parent="1" vertex="1">
          <mxGeometry x="570" y="430" width="120" height="80" as="geometry" />
        </mxCell>
        <mxCell id="8TzrN5soEH7_kOtTqFTn-22" value="Курьер" style="shape=umlActor;verticalLabelPosition=bottom;verticalAlign=top;html=1;" parent="1" vertex="1">
          <mxGeometry x="797" y="430" width="30" height="60" as="geometry" />
        </mxCell>
        <mxCell id="8TzrN5soEH7_kOtTqFTn-24" value="Забрать зака" style="ellipse;whiteSpace=wrap;html=1;" parent="1" vertex="1">
          <mxGeometry x="752" y="630" width="120" height="80" as="geometry" />
        </mxCell>
        <mxCell id="8TzrN5soEH7_kOtTqFTn-28" value="&amp;lt;&amp;lt;include&amp;gt;&amp;gt;" style="endArrow=open;endSize=12;dashed=1;html=1;rounded=0;exitX=0.5;exitY=1;exitDx=0;exitDy=0;" parent="1" source="8TzrN5soEH7_kOtTqFTn-18" target="8TzrN5soEH7_kOtTqFTn-29" edge="1">
          <mxGeometry width="160" relative="1" as="geometry">
            <mxPoint x="440" y="640" as="sourcePoint" />
            <mxPoint x="340" y="670" as="targetPoint" />
          </mxGeometry>
        </mxCell>
        <mxCell id="8TzrN5soEH7_kOtTqFTn-29" value="Сбор заказа" style="ellipse;whiteSpace=wrap;html=1;" parent="1" vertex="1">
          <mxGeometry x="280" y="630.0000000000005" width="120" height="80" as="geometry" />
        </mxCell>
        <mxCell id="8TzrN5soEH7_kOtTqFTn-32" value="Доставка клиену" style="ellipse;whiteSpace=wrap;html=1;" parent="1" vertex="1">
          <mxGeometry x="1070" y="630" width="120" height="80" as="geometry" />
        </mxCell>
        <mxCell id="scXfm34CAL_5DPB97pwR-5" value="" style="endArrow=classic;html=1;rounded=0;entryX=0;entryY=0.5;entryDx=0;entryDy=0;" edge="1" parent="1" target="8TzrN5soEH7_kOtTqFTn-16">
          <mxGeometry width="50" height="50" relative="1" as="geometry">
            <mxPoint x="140" y="120" as="sourcePoint" />
            <mxPoint x="1020" y="150" as="targetPoint" />
          </mxGeometry>
        </mxCell>
        <mxCell id="scXfm34CAL_5DPB97pwR-7" value="" style="endArrow=classic;html=1;rounded=0;entryX=0;entryY=0.5;entryDx=0;entryDy=0;" edge="1" parent="1" target="8TzrN5soEH7_kOtTqFTn-32">
          <mxGeometry width="50" height="50" relative="1" as="geometry">
            <mxPoint x="830" y="480" as="sourcePoint" />
            <mxPoint x="760" y="450" as="targetPoint" />
          </mxGeometry>
        </mxCell>
        <mxCell id="scXfm34CAL_5DPB97pwR-12" value="" style="endArrow=classic;html=1;rounded=0;entryX=0.5;entryY=0;entryDx=0;entryDy=0;" edge="1" parent="1" target="8TzrN5soEH7_kOtTqFTn-10">
          <mxGeometry width="50" height="50" relative="1" as="geometry">
            <mxPoint x="140" y="120" as="sourcePoint" />
            <mxPoint x="770" y="250" as="targetPoint" />
          </mxGeometry>
        </mxCell>
        <mxCell id="scXfm34CAL_5DPB97pwR-13" value="" style="endArrow=classic;html=1;rounded=0;entryX=0.5;entryY=0;entryDx=0;entryDy=0;" edge="1" parent="1" target="8TzrN5soEH7_kOtTqFTn-24">
          <mxGeometry width="50" height="50" relative="1" as="geometry">
            <mxPoint x="810" y="510" as="sourcePoint" />
            <mxPoint x="770" y="250" as="targetPoint" />
          </mxGeometry>
        </mxCell>
        <mxCell id="scXfm34CAL_5DPB97pwR-14" value="" style="endArrow=classic;html=1;rounded=0;entryX=0;entryY=0.5;entryDx=0;entryDy=0;" edge="1" parent="1" target="8TzrN5soEH7_kOtTqFTn-8">
          <mxGeometry width="50" height="50" relative="1" as="geometry">
            <mxPoint x="170" y="90" as="sourcePoint" />
            <mxPoint x="540" y="170" as="targetPoint" />
          </mxGeometry>
        </mxCell>
        <mxCell id="scXfm34CAL_5DPB97pwR-15" value="" style="endArrow=classic;html=1;rounded=0;entryX=0;entryY=0.5;entryDx=0;entryDy=0;" edge="1" parent="1" target="8TzrN5soEH7_kOtTqFTn-14">
          <mxGeometry width="50" height="50" relative="1" as="geometry">
            <mxPoint x="170" y="110" as="sourcePoint" />
            <mxPoint x="540" y="170" as="targetPoint" />
          </mxGeometry>
        </mxCell>
      </root>
    </mxGraphModel>
  </diagram>
</mxfile>
